<?xml version="1.0" ?>

<!DOCTYPE svg  PUBLIC '-//W3C//DTD SVG 1.1//EN'  'http://www.w3.org/Graphics/SVG/1.1/DTD/svg11.dtd'>

<!-- Uploaded to: SVG Repo, www.svgrepo.com, Transformed by: SVG Repo Mixer Tools -->
<svg fill="#FFFFFF" width="800px" height="800px" viewBox="0 0 512 512" version="1.1" xml:space="preserve" xmlns="http://www.w3.org/2000/svg" xmlns:xlink="http://www.w3.org/1999/xlink">

<g id="_x36_22_x2C__human_x2C__man_x2C__reality_x2C__user_x2C__virtual_x2C__vr">

<g>

<path d="M114.333,70.753H98.702v93.745h15.631V70.753z M205.692,101.207    l197.581-0.03c-6.594-11.669-14.701-22.315-24.11-31.724C352.67,42.961,316.091,26.59,275.668,26.59    c-19.867,0-38.808,3.96-56.046,11.11c-15.846,6.591-30.301,15.877-42.774,27.297l0.032,0.03c0.095,0.156,0.186,0.34,0.249,0.525    l10.212,25.565l0,0l0.309,0.03l0,0l0.281,0.031l0,0l0.309,0.031l0,0l0.277,0.063l0,0l0.309,0.029l0,0l0.281,0.031v0.031    l0.277,0.03l0,0l0.309,0.063l0,0l0.281,0.061l0,0l0.277,0.063l0.277,0.031v0.029l0.309,0.063l0,0l0.281,0.062l0,0l0.277,0.062    l0.281,0.063v0.029l0.277,0.062l0,0l0.277,0.093l0,0l0.281,0.063l0,0l0.277,0.093l0,0l0.277,0.092l0,0    c4.521,1.393,8.668,4.334,11.792,7.861l0,0l0.218,0.247l0,0l0.217,0.249l0,0l0.186,0.248l0,0L205.692,101.207z M158.497,109.379    c2.105-2.074,5.015-3.404,8.202-3.404c3.095,0,5.878,1.205,7.984,3.156l0.25,0.248c2.102,2.104,3.404,5.013,3.404,8.23    c0,3.219-1.302,6.128-3.404,8.234c-2.106,2.104-5.015,3.404-8.233,3.404c-3.064,0-5.882-1.208-7.956-3.158l-0.246-0.246    c-2.106-2.106-3.404-5.016-3.404-8.234C155.092,114.392,156.391,111.482,158.497,109.379z M166.698,113.586    c-1.116,0-2.106,0.465-2.846,1.178c-0.712,0.742-1.179,1.764-1.179,2.846c0,1.115,0.467,2.137,1.179,2.849l0.154,0.154    c0.712,0.649,1.67,1.021,2.692,1.021c1.144,0,2.134-0.433,2.878-1.145c0.712-0.742,1.175-1.764,1.175-2.879    c0-1.082-0.463-2.104-1.207-2.846l-0.123-0.125C168.709,113.99,167.783,113.586,166.698,113.586z M100.499,251.312    c-5.728,2.319-11.206,4.642-16.344,6.994c-37.015,16.774-58.64,33.518-56.169,46.206c1.421,7.335,11.451,12.999,27.883,16.805    c17.765,4.117,42.493,5.819,71.896,5.016c-1.856-11.328-2.506-25.938-2.537-44.722c-4.117-1.271-8.356-2.94-12.659-5.045    c-5.261-2.569-10.616-5.818-16.031-9.811c-1.484-1.114-1.919-3.095-1.176-4.675L100.499,251.312z M392.471,273.191    c23.584-9.16,42.616-18.632,55.956-27.792c14.547-10.028,22.005-19.345,20.488-27.02c-1.825-9.47-17.021-16-41.503-19.343    c-2.07,12.226-5.633,23.986-10.427,35.065C410.795,248.402,402.498,261.556,392.471,273.191z M115.54,237.477    c34.414-12.473,76.227-23.985,121.815-32.899h0.123c62.114-12.132,119.618-17.146,162.329-15.444    c7.521,0.279,14.578,0.807,21.169,1.549c0.681-5.819,1.053-11.73,1.053-17.734c0-13.462-1.793-26.895-5.201-39.274l-19.218-16.93    H211.883c0.649,11.513-2.723,14.485-8.914,20.272l0,0l-0.214,0.186l0,0l-0.218,0.185v0.032l-0.218,0.154v0.031l-0.217,0.154v0.031    l-0.214,0.154v0.032l-0.217,0.154l0,0l-0.218,0.187l0,0l-0.214,0.184l0,0l-0.218,0.156l0,0l-0.217,0.185l0,0l-0.218,0.155l0,0    l-0.246,0.186l0,0l-0.218,0.155l0,0l-0.246,0.155l0,0l-0.218,0.186l0,0l-0.249,0.154l0,0l-0.214,0.154l0,0l-0.25,0.125v0.029    l-0.249,0.125v0.029l-0.246,0.125l0,0l-0.218,0.154l0,0l-0.246,0.125l0,0l-0.249,0.154l0,0l-0.249,0.123l0,0l-0.246,0.156l0,0    l-0.249,0.122l0,0l-0.277,0.125l0,0l-0.249,0.122l0,0l-0.246,0.125v0.029l-0.249,0.094h-0.028l-0.249,0.125l0,0l-0.25,0.123l0,0    l-0.277,0.124l0,0l-0.246,0.093l0,0l-0.28,0.123l0,0l-0.246,0.093l0,0l-0.281,0.093v0.031l-0.246,0.094h-0.031l-0.25,0.093l0,0    l-0.277,0.093l0,0l-0.277,0.094l0,0l-0.281,0.091l0,0l-0.277,0.063v0.029l-0.249,0.063h-0.032l-0.246,0.093h-0.032l-0.246,0.062    h-0.032l-0.249,0.062l-0.032,0.031l-0.277,0.062l0,0l-0.277,0.062l0,0l-0.281,0.063l0,0l-0.277,0.062l0,0l-0.277,0.061l0,0    l-0.281,0.063h-0.032l-0.277,0.063l0,0l-0.277,0.029l0,0l-0.313,0.064l0,0l-0.277,0.029l0,0l-0.277,0.031h-0.031l-0.277,0.03    v0.031h-0.281v0.032l-0.309,0.029l0,0l-10.058,25.225l-0.032,0.093l-0.031,0.062l-0.032,0.062l-0.028,0.093l-0.032,0.062v0.063    h-0.032v0.093h-0.031v0.062h-0.032l-0.028,0.062l-0.031,0.063l-0.032,0.061l-0.032,0.063l-0.031,0.061l0,0l-0.06,0.094l0,0    l-0.031,0.063l-0.032,0.062l-0.063,0.062l-0.028,0.062l-0.063,0.063l-0.032,0.029l0,0l-0.063,0.063l-0.028,0.063l-0.063,0.061l0,0    l-0.063,0.063l-0.028,0.063l0,0l-0.063,0.029l0,0l-0.063,0.064l0,0l-0.06,0.029l-0.032,0.062l0,0l-0.063,0.063l-0.06,0.029l0,0    l-0.063,0.063l0,0l-0.063,0.03l-0.06,0.063l0,0l-0.063,0.029l0,0l-0.063,0.032l0,0l-0.06,0.062l-0.063,0.031l-0.063,0.029    l-0.06,0.032h-0.032l-0.063,0.032l0,0l-0.06,0.029l-0.063,0.031l-0.063,0.062l0,0l-0.091,0.032h-0.063l-0.06,0.029l-0.095,0.031    l-0.06,0.031l-0.063,0.03h-0.095l-0.06,0.032l-0.095,0.031h-0.06l0,0l-0.095,0.029h-0.06l-0.063,0.032h-0.091h-0.095h-0.063    l-0.091,0.031h-0.063h-0.091h-0.063h-47.94l6.345,28.937c0.186,0.773,0.091,1.641-0.277,2.445L115.54,237.477z M408.285,450.189    c20.243,0,38.935-23.212,52.801-60.722c14.27-38.655,23.12-92.198,23.12-151.373c0-59.174-8.851-112.685-23.12-151.341    c-13.866-37.541-32.558-60.752-52.801-60.752c-15.905,0-28.504,14.422-36.426,26.709c4.457,3.559,8.666,7.334,12.691,11.357    c27.851,27.854,45.09,66.354,45.09,108.879c0,6.314-0.369,12.566-1.145,18.693c27.887,4.117,45.402,12.596,47.881,25.285    c2.133,10.956-6.472,22.871-23.647,34.694c-16.249,11.204-40.482,22.717-70.625,33.579l-0.867,143.666    C381.174,442.916,395.971,450.189,408.285,450.189z M372.478,425.863l1.176-0.216l0.867-142.985    c-0.032-1.052,0.372-2.136,1.207-2.91c14.515-13.617,26.275-30.143,34.323-48.652c4.488-10.398,7.829-21.446,9.813-32.99    c-6.286-0.649-13.094-1.115-20.365-1.424c-42.121-1.672-99.039,3.312-160.659,15.352l-0.123,0.029    c-48.435,9.471-92.57,21.882-127.883,35.221l-7.24,15.197c4.176,2.908,8.293,5.322,12.287,7.271    c4.766,2.353,9.5,4.086,14.112,5.324c1.611,0.465,2.787,1.919,2.787,3.683c0,39.985,2.288,60.258,12.255,69.511    c9.749,9.1,28.35,8.48,60.658,6.47l0.498-0.031c2.103,0,3.804,1.702,3.804,3.806v95.169    C225.1,451.088,370.87,425.337,372.478,425.863z M237.046,423.388c-2.042,0.403-4.053-0.929-4.457-2.971    c-0.403-2.074,0.927-4.054,2.969-4.457l106.436-21.603c2.043-0.402,4.054,0.93,4.457,2.972c0.4,2.043-0.93,4.054-2.973,4.455    L237.046,423.388z M237.046,399.34c-2.042,0.434-4.053-0.928-4.457-2.971c-0.403-2.042,0.927-4.055,2.969-4.457l106.436-21.603    c2.043-0.401,4.054,0.929,4.457,3.003c0.4,2.042-0.93,4.023-2.973,4.425L237.046,399.34z M128.848,485.999    c-2.074,0-3.808-1.702-3.808-3.809c0-2.072,1.733-3.806,3.808-3.806h210.7c2.074,0,3.808,1.733,3.808,3.806    c0,2.106-1.733,3.809-3.808,3.809H128.848z M252.242,470.276c-2.105,0-3.808-1.702-3.808-3.808c0-2.073,1.702-3.775,3.808-3.775    h145.771c2.103,0,3.805,1.702,3.805,3.775c0,2.105-1.702,3.808-3.805,3.808H252.242z M412.928,470.276    c-2.102,0-3.804-1.702-3.804-3.808c0-2.073,1.702-3.775,3.804-3.775h18.229c2.106,0,3.809,1.702,3.809,3.775    c0,2.105-1.702,3.808-3.809,3.808H412.928z M120.552,470.771c-2.102,0-3.804-1.702-3.804-3.806c0-2.105,1.702-3.808,3.804-3.808    h69.081c2.102,0,3.804,1.702,3.804,3.808c0,2.104-1.702,3.806-3.804,3.806H120.552z M171.061,70.753h-1.734h-0.091h-47.291v93.745    h49.116l10.153-25.439v-0.032l0.032-0.062l0,0l0.028-0.061l0,0l0.032-0.063l0,0l0.032-0.062l0,0l0.031-0.062l0,0l0.032-0.062l0,0    l0.032-0.063v-0.03l0.028-0.032V138.5l0.063-0.029v-0.031l0.031-0.032v-0.03l0.032-0.031l0,0l0.032-0.062l0,0l0.06-0.062l0,0    l0.032-0.063l0,0l0.063-0.063l0,0l0.028-0.061l0,0l0.032-0.031h0.032l0.031-0.063l0,0l0.032-0.061h0.032l0.028-0.063l0,0    l0.063-0.03l0,0l0.031-0.063l0,0l0.06-0.03l0,0l0.031-0.062h0.032l0.032-0.031v-0.031l0.063-0.03l0,0l0.06-0.032l0,0l0.032-0.061    h0.032l0.031-0.031l0,0l0.06-0.032l0,0l0.063-0.062l0,0l0.063-0.029l0,0l0.06-0.031l0,0l0.063-0.032l0,0l0.031-0.03l0.028-0.031    l0.032-0.031l0,0l0.063-0.03h0.032l0.031-0.031h0.028l0.032-0.032l0,0l0.063-0.029l0,0l0.06-0.031h0.032l0.032-0.03h0.031h0.063    v-0.031h0.06l0,0l0.063-0.032l0,0l0.06-0.029l0,0l0.063-0.031l0,0h0.063l0,0l0.06-0.032l0,0h0.063l0.031-0.03h0.06l0,0    l0.063-0.031l0,0h0.063l0,0h0.06v-0.031h0.063h0.032h0.06l0,0l0.063-0.029l0,0h0.063l0,0h0.06h0.031h0.063l0,0h0.06l0.063-0.032    h0.063h0.091h0.25l0,0h0.246l0,0h0.249l0,0h0.218l0.028-0.03h0.218l0,0h0.249v-0.031h0.246l0,0l0.25-0.031l0,0l0.214-0.029l0,0    l0.249-0.032l0,0l0.25-0.032l0,0l0.214-0.029l0,0l0.25-0.031l0,0l0.217-0.031l0.028-0.03l0.217-0.032l0,0l0.25-0.029l0,0    l0.214-0.063l0,0l0.218-0.062h0.031l0.218-0.031v-0.029l0.214-0.032l0,0l0.25-0.062l0,0l0.217-0.061l0,0l0.214-0.064v-0.029    l0.217-0.063l0,0l0.25-0.063l0,0l0.214-0.061l0,0l0.218-0.094l0,0l0.217-0.061l0,0l0.218-0.094l0,0l0.214-0.093l0,0l0.218-0.063    v-0.029l0.218-0.062l0,0l0.217-0.093l0,0l0.214-0.094l0,0l0.186-0.093l0,0l0.217-0.124l0,0l0.218-0.094l0,0l0.214-0.093l0,0    l0.186-0.122l0,0l0.218-0.094l0,0l0.186-0.125l0,0l0.217-0.091l0,0l0.186-0.124l0,0l0.186-0.125l0,0l0.214-0.123l0,0l0.186-0.125    l0,0l0.186-0.122l0,0l0.186-0.124l0,0l0.186-0.123l0,0l0.186-0.125l0,0l0.186-0.123v-0.031l0.186-0.125l0,0l0.186-0.123l0,0    l0.183-0.154l0,0l0.186-0.124v-0.032l0.186-0.123l0,0l0.154-0.154l0,0l0.186-0.124v-0.03l0.154-0.124v-0.032l0.186-0.123l0,0    l0.154-0.154l0,0l0.186-0.156l0,0l0.155-0.154l0,0l0.154-0.186l0,0l0.186-0.154l0,0l0.154-0.154l0,0l0.158-0.186l0,0l0.154-0.155    l0,0l0.154-0.187l0,0l0.123-0.154l0,0l0.154-0.186l0,0l0.154-0.154v-0.031l0.154-0.154l0,0c3.436-4.333,4.924-9.904,3.839-15.537    l-0.031-0.216v-0.032l-0.063-0.215l0,0l-0.091-0.465l0,0l-0.123-0.464l0,0l-0.063-0.218l0,0l-0.063-0.215l0,0l-0.154-0.466l0,0    l-0.214-0.649l0,0l-0.095-0.217l0,0l-0.154-0.434l0,0l-0.277-0.649l0,0c-0.186-0.401-0.403-0.835-0.621-1.239l0,0    c-0.867-1.609-1.979-3.094-3.281-4.361c-0.958-0.961-2.042-1.827-3.187-2.57l0,0l-0.526-0.34l-0.06-0.031l0,0l-0.186-0.125l0,0    l-0.217-0.092l0,0l-0.186-0.124l0,0l-0.218-0.093l0,0l-0.186-0.123h-0.028l-0.186-0.093l0,0l-0.218-0.093v-0.031l-0.186-0.094    h-0.031l-0.186-0.093l0,0l-0.214-0.093l0,0l-0.217-0.094l0,0l-0.218-0.091l0,0l-0.218-0.093l0,0l-0.214-0.063l0,0l-0.218-0.093    l0,0l-0.217-0.062l0,0l-0.218-0.093l0,0l-0.214-0.062l0,0l-0.218-0.062l-0.032-0.031l-0.217-0.063l0,0l-0.214-0.061l0,0    l-0.217-0.063l0,0l-0.25-0.062l0,0l-0.214-0.061l0,0l-0.218-0.032h-0.031l-0.218-0.062l0,0l-0.214-0.062l0,0l-0.25-0.031l0,0    l-0.217-0.062h-0.028l-0.217-0.031l0,0l-0.25-0.031l0,0l-0.214-0.031l0,0l-0.25-0.031l0,0l-0.249-0.031l0,0l-0.214-0.029l0,0    l-0.25-0.032l0,0h-0.246v-0.031h-0.249l0,0h-0.218h-0.028l-0.218-0.03l0,0h-0.249l0,0h-0.246h-0.25h-0.091h-0.063l0,0h-0.091    v-0.031h-0.063H184.4h-0.06l0,0h-0.095l0,0h-0.063v-0.029h-0.091l0,0h-0.063l0,0l-0.091-0.032l0,0h-0.063l0,0l-0.06-0.032h-0.032    l-0.063-0.029l0,0h-0.06l0,0l-0.095-0.031l0,0l-0.063-0.031l0,0l-0.06-0.03l0,0l-0.095-0.032l0,0h-0.06v-0.031h-0.063v-0.029    h-0.063l-0.028-0.031h-0.063v-0.03l-0.063-0.032l0,0l-0.06-0.031l0,0l-0.063-0.029l0,0l-0.063-0.032h-0.028l-0.031-0.031h-0.032    l-0.032-0.062h-0.031l-0.028-0.031h-0.031l-0.032-0.03h-0.032l-0.063-0.062l0,0l-0.028-0.031h-0.031l-0.032-0.062l0,0    l-0.063-0.032l0,0l-0.06-0.061l0,0l-0.063-0.031v-0.032l-0.063-0.03l0,0l-0.028-0.061h-0.032l-0.031-0.032v-0.031l-0.063-0.03l0,0    l-0.06-0.063l0,0l-0.032-0.062l0,0l-0.063-0.062l0,0l-0.032-0.062l0,0l-0.06-0.032v-0.031l-0.031-0.029v-0.031l-0.063-0.032l0,0    l-0.028-0.062l0,0l-0.063-0.061l0,0l-0.031-0.063l0,0l-0.032-0.063v-0.03l-0.032-0.063h-0.028l-0.032-0.061l0,0l-0.032-0.063l0,0    l-0.031-0.061l0,0l-0.032-0.063l0,0l-0.032-0.062v-0.031l-0.028-0.062l0,0l-0.032-0.062l0,0l-0.032-0.062l0,0l-0.031-0.093l0,0    l-0.032-0.063l0,0v-0.063l-0.028-0.031v-0.062l0,0L171.061,70.753z" style="fill-rule:evenodd;clip-rule:evenodd;"/>

</g>

</g>

<g id="Layer_1"/>

</svg>